<?xml version="1.0" encoding="utf-8"?>
<svg xmlns="http://www.w3.org/2000/svg" viewBox="1 6 22 17" width="22px" height="17px"><path d="M 18.5 9 C 21 9 23 11 23 13.5 C 23 15.06 22.21 16.43 21 17.24 L 21 23 L 12 23 L 3 23 L 3 17.24 C 1.79 16.43 1 15.06 1 13.5 C 1 11 3 9 5.5 9 L 10 9 L 10 6 L 13 6 L 13 9 L 18.5 9 M 12 16 C 13.381 16 14.5 14.881 14.5 13.5 L 16 13.5 C 16 14.881 17.119 16 18.5 16 C 19.881 16 21 14.881 21 13.5 C 21 12.119 19.881 11 18.5 11 L 5.5 11 C 4.119 11 3 12.119 3 13.5 C 3 14.881 4.119 16 5.5 16 C 6.881 16 8 14.881 8 13.5 L 9.5 13.5 C 9.5 14.881 10.619 16 12 16 Z" style="fill: rgb(255, 255, 255);" id="object-0" transform="matrix(1, 0, 0, 1, 2.220446049250313e-16, 0)"/></svg>